<svg id="Layer_2_copy_3" data-name="Layer 2 copy 3" xmlns="http://www.w3.org/2000/svg" viewBox="0 0 595.28 598.06"><defs><style>.cls-1{fill:#61ae24;}</style></defs><path class="cls-1" d="M442.27,553.52c-23.75-4.92-46.54-9.75-56.58-14-6.57-2.75-14.52-9.73-23.69-14.71-22.49-12.2-49.73-25.72-62.94-32.74-18.65-9.88-8-11.06-26.23-21.25-9.9-5.56-32.37-7.21-36.28-15.12-3-6.06-3.07-12.76,1.68-20,22.27-33.89,132.64,54.3,167,10.3,14-17.85,25.05-41.46,10-68.89-12.63-23.05-23.24-64-47.51-85.79-5.67-5.1-7,.49-22.41-5.42-19.67-7.56-12.93-9.13-21-8.78-4.31.21-6.76,5-11.51,6.2-3.69.93-9.6-2-13.57-.49C260,298.2,256.59,274.17,258,266.5c.68-4,12.46-7.11,23.28-13.88,9.69-6.06,18.26-15.88,23.69-19,3.23-1.84,22.37-3.89,43.72-7.69,14.37-2.58,28.89-8.72,43.73-5.67,8,1.63,15,6.36,21.81,10.49,17.31,10.61,36.94,40,58.57,62.14,13.62,13.92,31.35,21.37,39.27,30.78,12.18,14.54,22.76,64.12,50.45,111.24A296.38,296.38,0,0,0,595.28,299C595.28,134.65,462,1.39,297.64,1.39S0,134.65,0,299c0,9.57.47,19,1.35,28.37l19.09-19.92c23.22-43.63,33.12-86.85,44.4-100.25,7.9-9.39,25.65-16.84,39.27-30.78,21.63-22.15,41.26-51.51,58.57-62.12,6.77-4.15,13.84-8.88,21.79-10.49,14.84-3.07,29.36,3.09,43.73,5.65,21.37,3.82,40.51,5.87,43.74,7.69,5.43,3.07,14,12.91,23.69,18.95,10.81,6.77,22.58,9.84,23.28,13.9,1.36,7.67-2.08,31.7-41.35,16.3-4-1.52-9.86,1.42-13.55.49-4.77-1.18-7.2-6-11.51-6.22-8.06-.33-1.33,1.22-21,8.8-15.42,5.91-16.75.3-22.41,5.42-24.27,21.8-34.88,62.74-47.53,85.77-15,27.45-4,51,10,68.89,34.39,44,144.76-44.14,167-10.25,4.75,7.24,4.69,13.94,1.7,20-3.93,7.91-26.38,9.54-36.28,15.1-18.2,10.19-7.58,11.37-26.23,21.25-13.21,7-40.45,20.56-62.94,32.74-9.17,5-17.12,12-23.71,14.73-10,4.23-32.83,9.06-56.56,14-29.86,6.1-61.27,12.29-71.1,17.49-4.38,2.32-9.38,5.17-14.42,8.13,53.24,80.71,144.7,134,248.62,134A296.19,296.19,0,0,0,449.57,555Z"/></svg>